<?xml version="1.0" encoding="UTF-8"?>
<svg id="Layer_1" data-name="Layer 1" xmlns="http://www.w3.org/2000/svg" viewBox="0 0 31 31">
  <defs>
    <style>
      .cls-1 {
        fill: #000;
        stroke : #000;
        stroke-width : 5px;
      }
    </style>
  </defs>
  <path class="cls-1" d="M16.21,15.5L30.85,.85c.2-.2,.2-.51,0-.71s-.51-.2-.71,0L15.5,14.79,.85,.15C.66-.05,.34-.05,.15,.15S-.05,.66,.15,.85L14.79,15.5,.15,30.15c-.2,.2-.2,.51,0,.71,.1,.1,.23,.15,.35,.15s.26-.05,.35-.15l14.65-14.65,14.65,14.65c.1,.1,.23,.15,.35,.15s.26-.05,.35-.15c.2-.2,.2-.51,0-.71l-14.65-14.65Z"/>
</svg>