<?xml version="1.0" encoding="UTF-8"?>
<svg id="Layer_1" data-name="Layer 1" xmlns="http://www.w3.org/2000/svg" viewBox="0 0 30 25">
  <defs>
    <style>
      .cls-1 {
        fill: #eee;
      }
    </style>
  </defs>
  <path class="cls-1" d="M25.89,13.18L13.61,1.66c-.42-.39-.96-.63-1.54-.69L2.86,.01C1.22-.15-.16,1.15,.02,2.69L1.02,11.31c.06,.55,.33,1.06,.74,1.45l12.29,11.53c1.01,.95,2.64,.95,3.65,0l8.19-7.68c1.01-.95,1.01-2.48,0-3.43ZM6.9,6.48c-.72,.68-1.9,.68-2.62,0s-.72-1.78,0-2.46c.72-.68,1.9-.68,2.62,0,.72,.68,.72,1.78,0,2.46Z"/>
  <path class="cls-1" d="M29.24,13.2L16.95,1.67c-.42-.39-.96-.63-1.54-.69l-.82-.08c-.09,.08-.2,.16-.29,.23,.36,.12,.71,.29,.99,.55l12.29,11.53c1.01,.95,1.01,2.48,0,3.43l-8.19,7.68c-.29,.27-.63,.44-.99,.56,.9,.29,1.94,.12,2.66-.56l8.19-7.68c1.01-.95,1.01-2.48,0-3.43Z"/>
</svg>